<svg width="17" height="19" viewBox="0 0 17 19" fill="none" xmlns="http://www.w3.org/2000/svg">
<path d="M6.51517 7.69092C5.98007 7.69092 5.55762 8.14925 5.55762 8.70842C5.55762 9.26758 5.98945 9.72592 6.51517 9.72592C7.05027 9.72592 7.47272 9.26758 7.47272 8.70842C7.48211 8.14925 7.05027 7.69092 6.51517 7.69092ZM9.9417 7.69092C9.4066 7.69092 8.98415 8.14925 8.98415 8.70842C8.98415 9.26758 9.41599 9.72592 9.9417 9.72592C10.4768 9.72592 10.8993 9.26758 10.8993 8.70842C10.8993 8.14925 10.4768 7.69092 9.9417 7.69092Z" fill="white"/>
<path d="M14.5041 0H1.92449C0.863674 0 0 0.843333 0 1.88833V14.2817C0 15.3267 0.863674 16.17 1.92449 16.17H12.5702L12.0727 14.4742L13.2743 15.565L14.4102 16.5917L16.4286 18.3333V1.88833C16.4286 0.843333 15.5649 0 14.5041 0ZM10.8804 11.9717C10.8804 11.9717 10.5425 11.5775 10.2608 11.2292C11.4906 10.89 11.96 10.1383 11.96 10.1383C11.5751 10.3858 11.209 10.56 10.8804 10.6792C10.411 10.8717 9.96041 11 9.51918 11.0733C8.61796 11.2383 7.79184 11.1925 7.08776 11.0642C6.55265 10.9633 6.09265 10.8167 5.70776 10.67C5.49184 10.5875 5.25714 10.4867 5.02245 10.3583C4.99429 10.34 4.96612 10.3308 4.93796 10.3125C4.91918 10.3033 4.9098 10.2942 4.90041 10.285C4.73143 10.1933 4.63755 10.1292 4.63755 10.1292C4.63755 10.1292 5.08816 10.8625 6.28041 11.2108C5.99878 11.5592 5.65143 11.9717 5.65143 11.9717C3.57673 11.9075 2.78816 10.5783 2.78816 10.5783C2.78816 7.62667 4.14 5.23417 4.14 5.23417C5.49184 4.24417 6.77796 4.27167 6.77796 4.27167L6.87184 4.38167C5.18204 4.85833 4.40286 5.5825 4.40286 5.5825C4.40286 5.5825 4.60939 5.4725 4.95674 5.31667C5.96123 4.88583 6.75918 4.76667 7.08776 4.73917C7.14408 4.73 7.19102 4.72083 7.24735 4.72083C7.82 4.6475 8.46776 4.62917 9.14367 4.7025C10.0355 4.80333 10.9931 5.06 11.9694 5.5825C11.9694 5.5825 11.2278 4.895 9.63184 4.41833L9.76327 4.27167C9.76327 4.27167 11.0494 4.24417 12.4012 5.23417C12.4012 5.23417 13.7531 7.62667 13.7531 10.5783C13.7531 10.5783 12.9551 11.9075 10.8804 11.9717Z" fill="white"/>
</svg>
